<svg xmlns="http://www.w3.org/2000/svg" width="512" height="512"><path d="M410.92 100.86H101.08c-27.62 0-50 22.4-50 50v210.28c0 27.6 22.38 50 50 50h309.84c27.62 0 50-22.4 50-50V150.86c0-27.6-22.38-50-50-50zm10 260.28c0 5.5-4.48 10-10 10H101.08c-5.52 0-10-4.5-10-10V150.86c0-5.5 4.48-10 10-10h309.84c5.52 0 10 4.5 10 10v210.28zM299.3 225.2c-6.92-6.92-18.12-6.92-25.03 0l-64.97 64.96-18.27-18.27c-3.32-3.33-7.82-5.2-12.5-5.2s-9.2 1.87-12.52 5.2l-47.3 47.3c-5.07 5.07-6.58 12.68-3.84 19.3 2.73 6.6 9.18 10.9 16.34 10.9H380.8c7.16 0 13.6-4.3 16.34-10.9 2.74-6.62 1.23-14.23-3.83-19.3l-94-94z"/><circle cx="178" cy="200.41" r="26.333"/></svg>